<?xml version="1.0" encoding="UTF-8"?>
<svg width="1024" height="1024" viewBox="0 0 1024 1024" xmlns="http://www.w3.org/2000/svg">
  <path d="M 345.360 136.081 C 338.413 138.753, 331.670 146.006, 329.575 153.058 C 328.216 157.635, 328 166.783, 328 219.682 L 328 281 356 281 L 384 281 384 219.182 C 384 150.001, 384.033 150.373, 377.194 142.781 C 369.703 134.467, 356.683 131.726, 345.360 136.081 M 656.500 136.358 C 650.198 139.306, 645.423 144.091, 642.387 150.500 L 640.020 155.500 640.010 218.250 L 640 281 668.035 281 L 696.071 281 695.785 217.750 L 695.500 154.500 693.108 149.206 C 687.175 136.075, 669.996 130.046, 656.500 136.358 M 461 206.935 C 452.682 209.475, 447.076 214.207, 442.702 222.384 C 440.613 226.289, 440.484 227.894, 440.191 253.750 L 439.882 281 511.941 281 L 584 281 584 255.178 C 584 224.617, 583.539 222.391, 575.574 214.474 C 566.959 205.912, 567.523 205.986, 511.635 206.086 C 485.161 206.133, 462.375 206.515, 461 206.935 M 281.656 313.970 C 265.858 319.030, 254.768 332.155, 252.060 349 C 250.617 357.975, 250.613 668.020, 252.055 676.910 C 254.241 690.379, 263.724 703.277, 275.820 709.232 L 282.458 712.500 511.979 712.500 L 741.500 712.500 747.500 709.569 C 759.605 703.655, 769.027 691.527, 771.870 678.201 C 772.684 674.385, 772.996 628.070, 772.985 512.701 C 772.969 336.469, 773.295 345.961, 766.850 333.870 C 762.942 326.538, 754.704 318.688, 747.253 315.196 L 741.500 312.500 514.500 312.299 C 295.139 312.105, 287.303 312.162, 281.656 313.970 M 342 391.099 C 334.668 393.704, 328.042 398.711, 324.147 404.592 C 318.149 413.647, 317.999 415.054, 318.013 461.932 C 318.025 499.543, 318.243 505.548, 319.890 513.500 C 323.784 532.303, 332.797 548.912, 345.714 561.086 C 357.860 572.533, 369.302 578.919, 386.095 583.625 L 395.690 586.314 394.413 592.407 C 390.461 611.272, 390.214 632.968, 393.834 643.267 C 397.946 654.968, 408.292 664.623, 419.260 666.994 C 423.009 667.805, 450.250 668.038, 515 667.814 C 602.517 667.510, 605.658 667.435, 610.286 665.521 C 619.063 661.892, 624.118 657.191, 628.500 648.581 L 632.500 640.723 632.407 623.612 C 632.334 610.072, 631.864 604.431, 630.157 596.591 C 628.971 591.141, 628 586.560, 628 586.412 C 628 586.263, 630.587 585.609, 633.750 584.957 C 649.845 581.641, 667.143 573.291, 677.470 563.853 C 691.300 551.213, 702.813 527.637, 705.964 505.500 C 707.282 496.242, 707.273 430.274, 705.953 422.138 C 704.018 410.215, 695.614 398.428, 684.761 392.415 L 679.500 389.500 513.500 389.323 C 351.123 389.150, 347.380 389.188, 342 391.099 M 123.715 392.364 C 115.686 395.100, 111.088 399.154, 107.816 406.382 C 105.678 411.107, 105.500 412.843, 105.500 429 C 105.500 448.281, 105.921 449.987, 112.362 456.838 C 120.403 465.390, 124.752 466, 177.684 466 L 221 466 221 428 L 221 390 175.750 390.026 C 131.120 390.051, 130.407 390.083, 123.715 392.364 M 803 428.016 L 803 466.124 850.250 465.768 C 892.488 465.450, 897.995 465.224, 902.163 463.642 C 908.245 461.332, 913.641 455.992, 916.889 449.067 C 919.352 443.816, 919.500 442.620, 919.500 428 C 919.500 414.309, 919.252 411.964, 917.377 407.911 C 914.540 401.776, 908.889 396.310, 902.086 393.120 L 896.500 390.500 849.750 390.204 L 803 389.908 803 428.016 M 351.828 422.301 L 347.500 425.601 347.238 463.307 C 346.942 505.932, 347.406 510.256, 353.642 523 C 356.392 528.619, 359.343 532.519, 365.406 538.547 C 374.533 547.621, 383.039 552.618, 394.996 555.932 C 406.715 559.179, 406.827 559.145, 413.223 550.250 C 432.157 523.922, 456.038 507.545, 485.441 500.727 C 492.670 499.051, 497.934 498.614, 511.500 498.564 C 529.284 498.499, 538.354 499.767, 551.500 504.160 C 574.056 511.696, 596.743 529.055, 610.430 549.250 C 617.163 559.184, 616.687 559.007, 628.590 556.006 C 651.357 550.266, 668.412 535.641, 674.912 516.282 C 676.900 510.360, 677 508.014, 677 467.120 L 677 424.178 673.923 421.589 L 670.847 419 513.501 419 L 356.155 419 351.828 422.301 M 494.056 529.137 C 465.910 533.804, 445.100 550.304, 431.940 578.387 C 425.016 593.162, 421 610.778, 421 626.372 C 421 630.661, 421.488 634.088, 422.200 634.800 C 423.115 635.715, 444.340 636, 511.629 636 C 590.503 636, 600.024 635.833, 601.429 634.429 C 604.312 631.545, 603.080 612.268, 598.971 595.976 C 594.721 579.127, 587.573 565.785, 576.554 554.135 C 564.301 541.179, 549.179 533.005, 531.140 529.585 C 522.063 527.864, 503.110 527.635, 494.056 529.137 M 128.479 561.113 C 119.224 562.243, 112.521 567.085, 107.874 576 C 105.761 580.054, 105.493 582.063, 105.176 596.266 C 104.884 609.355, 105.129 613.003, 106.624 617.754 C 109.181 625.886, 114.757 631.227, 123.509 633.930 C 129.869 635.894, 132.525 636, 175.605 636 L 221 636 221 598.250 L 221 560.500 177.250 560.500 C 153.188 560.500, 131.241 560.776, 128.479 561.113 M 802.999 598.295 L 803 636.091 850.750 635.789 C 893.656 635.518, 898.877 635.311, 902.213 633.746 C 910.731 629.750, 916.917 621.763, 918.901 612.201 C 920.541 604.294, 920.281 587.310, 918.425 581.058 C 916.508 574.604, 909.873 567.103, 903.152 563.792 C 898.547 561.523, 898.014 561.495, 850.749 561 L 802.999 560.500 802.999 598.295 M 328.010 775.750 C 328.019 808.002, 328.055 808.577, 330.366 813.538 C 333.140 819.496, 340.708 826.533, 346.069 828.139 L 349.849 829.271 350.174 853.886 C 350.453 874.924, 350.751 878.959, 352.230 881.662 C 359.249 894.489, 379.307 893.327, 385.898 879.711 C 387.843 875.693, 388 873.690, 388 852.868 L 388 830.368 393.512 828.084 C 400.250 825.291, 407.398 818.544, 410.320 812.220 C 412.393 807.732, 412.516 805.912, 412.824 775.250 L 413.147 743 370.574 743 L 328 743 328.010 775.750 M 612 774.318 C 612 808.795, 612.444 812.171, 617.976 819.808 C 620.956 823.922, 629.984 829.973, 633.169 829.991 C 634.671 829.999, 634.872 832.339, 635.173 853.250 C 635.486 875.015, 635.649 876.766, 637.731 880.666 C 641.630 887.969, 648.683 891.404, 657.062 890.079 C 663.605 889.045, 666.893 886.597, 670 880.448 C 672.413 875.672, 672.511 874.711, 672.817 852.808 L 673.134 830.116 677.926 828.524 C 684.485 826.346, 690.240 821.141, 693.108 814.794 C 695.454 809.603, 695.506 808.856, 695.800 776.250 L 696.100 743 654.050 743 L 612 743 612 774.318" fill="#ff4444" stroke="#ff4444" stroke-width="1"/>
</svg>