<?xml version="1.0" encoding="UTF-8"?>
<svg width="1024" height="1024" viewBox="0 0 1024 1024" xmlns="http://www.w3.org/2000/svg">
  <path d="M 342.463 99.591 C 332.532 103.118, 325.582 113.392, 325.689 124.389 C 325.759 131.459, 328.474 138.164, 333.040 142.539 L 336 145.374 336 184.939 L 336 224.503 331.482 226.900 C 325.926 229.848, 320.471 235.749, 317.637 241.878 C 315.565 246.358, 315.500 247.741, 315.500 287 L 315.500 327.500 318.146 332.500 C 324.235 344.007, 334.888 350.839, 348.161 351.749 L 356 352.286 356 379.643 L 356 407 348.750 407.031 C 339.711 407.069, 329.059 408.451, 322.440 410.442 C 315.588 412.504, 306.407 420.867, 302.473 428.632 C 299.705 434.095, 299.476 435.404, 299.155 447.603 L 298.811 460.706 264.655 480.554 C 245.870 491.471, 227.688 502.084, 224.250 504.139 L 218 507.876 217.978 479.188 C 217.958 452.505, 217.814 450.185, 215.921 446 C 213.645 440.965, 209.130 435.879, 204.250 432.852 L 201 430.837 201 407.629 C 201 377.262, 199.370 370.655, 189.192 359.774 C 180.965 350.979, 169.373 346, 157.121 346 C 138.822 346, 124.278 354.975, 116.610 371 L 113.500 377.500 113.190 404.255 L 112.881 431.010 110.190 432.423 C 106.274 434.479, 100.323 440.960, 98.639 445.003 C 97.399 447.979, 97.137 463.773, 96.898 550.003 C 96.637 644.371, 96.739 651.863, 98.362 656.671 C 100.543 663.128, 106.633 670.160, 112.511 673.005 L 117 675.178 117 696.408 C 117 720.668, 117.824 725.098, 123.590 731.834 C 125.589 734.169, 129.536 737.296, 132.362 738.781 C 137.270 741.362, 138.272 741.498, 154.744 741.824 C 168.713 742.100, 172.923 741.854, 176.914 740.529 C 183.408 738.372, 190.705 731.830, 193.634 725.538 C 195.877 720.723, 195.981 719.502, 195.990 697.911 L 196 675.321 198.750 674.093 C 206.422 670.667, 213.005 663.813, 214.554 657.640 C 215.311 654.625, 212.116 655.348, 252.500 649.048 C 270.100 646.302, 295.324 642.256, 308.554 640.057 L 332.608 636.058 338.554 641.663 C 345.687 648.387, 354.919 652.946, 368.598 656.500 C 374.024 657.910, 378.733 659.387, 379.063 659.782 C 379.393 660.177, 384.294 674.900, 389.954 692.500 C 395.615 710.100, 400.891 725.764, 401.679 727.310 C 407.109 737.950, 420.981 745.808, 434.799 746.070 C 442.584 746.218, 442.586 746.247, 435.986 759.864 C 427.176 778.039, 427.024 776.990, 442.402 804.397 C 449.222 816.554, 463.366 842.025, 473.832 861 C 498.487 905.701, 498.934 906.416, 503.878 908.938 C 511.126 912.635, 519.755 911.191, 525.178 905.373 C 526.651 903.793, 540.988 878.875, 557.037 850 C 573.086 821.125, 588.038 794.433, 590.262 790.684 C 596.758 779.736, 596.631 776.698, 589.019 760.881 C 585.582 753.740, 582.973 747.693, 583.222 747.445 C 583.471 747.196, 587.235 746.542, 591.587 745.991 C 602.123 744.658, 607.497 742.752, 613.461 738.233 C 621.797 731.918, 623.163 729.022, 634.748 693.103 C 641.191 673.127, 646.118 659.418, 647.010 658.989 C 647.829 658.595, 652.513 657.311, 657.419 656.137 C 670.290 653.055, 678.548 648.926, 685.472 642.110 L 691.340 636.334 746.420 645.623 C 776.714 650.732, 802.964 655.177, 804.753 655.502 C 807.257 655.956, 808.464 656.990, 809.995 659.990 C 812.590 665.077, 818.152 670.411, 823.623 673.059 L 828 675.178 828 696.408 C 828 720.668, 828.824 725.098, 834.590 731.834 C 841.879 740.350, 853.171 743.328, 874.500 742.359 C 885.954 741.838, 891.839 739.850, 897.808 734.483 C 906.692 726.495, 907.126 724.787, 907.039 698.164 L 906.964 675.196 911.460 673.019 C 917.683 670.007, 924.618 662.026, 926.490 655.721 C 928.772 648.037, 928.763 453.414, 926.480 446.944 C 924.501 441.334, 920.792 436.553, 915.919 433.328 L 912 430.734 912 409.051 C 912 397.125, 911.508 384.697, 910.907 381.434 C 909.446 373.507, 905.845 366.151, 900.565 360.308 C 882.220 340.009, 848.467 341.418, 832.468 363.151 C 824.919 373.405, 824 378.123, 824 406.630 L 824 431.050 821.552 431.980 C 817.816 433.401, 811.111 439.885, 808.678 444.432 C 806.622 448.272, 806.472 450.136, 806 477.658 L 805.500 506.816 798.500 502.761 C 794.650 500.531, 776.581 489.978, 758.347 479.310 L 725.194 459.914 724.841 446.707 C 724.509 434.290, 724.311 433.181, 721.542 428.171 C 717.592 421.025, 708.387 412.621, 702.296 410.599 C 696.274 408.600, 684.688 407.071, 675.250 407.031 L 668 407 668 379.632 L 668 352.263 675.255 351.797 C 688.832 350.926, 699.571 343.939, 705.684 332 L 708.500 326.500 708.500 286.500 C 708.500 247.752, 708.433 246.355, 706.363 241.878 C 703.529 235.749, 698.074 229.848, 692.518 226.900 L 688 224.503 688 185.655 L 688 146.807 691.925 142.348 C 701.115 131.908, 701.439 117.325, 692.702 107.399 C 686.678 100.555, 682.073 98.535, 672.500 98.535 C 663.441 98.535, 658.791 100.388, 653.362 106.162 C 648.003 111.863, 646.539 115.692, 646.545 124 C 646.549 130.162, 647.022 132.403, 649.197 136.563 C 650.653 139.347, 652.554 142.215, 653.422 142.935 C 654.812 144.089, 654.993 148.907, 654.942 183.372 L 654.885 222.500 652.598 217.500 C 641.752 193.787, 621.083 172.452, 595.330 158.387 C 549.646 133.437, 480.467 132.661, 432.871 156.565 C 406.830 169.643, 388.601 187.219, 373.300 214 L 369.015 221.500 369.007 182.924 L 369 144.349 371.419 142.076 C 372.750 140.826, 374.823 137.515, 376.026 134.719 C 382.090 120.622, 375.188 104.319, 361.128 99.528 C 355.627 97.653, 347.846 97.680, 342.463 99.591 M 487.538 174.586 C 474.141 176.668, 461.779 180.510, 449.500 186.409 C 421.835 199.698, 406.612 217.303, 396.672 247.500 C 390.506 266.236, 390.700 263.480, 390.282 338.250 L 389.898 407 411.449 407 L 433 407 433.006 392.750 C 433.009 384.913, 433.499 376.743, 434.095 374.595 C 435.554 369.342, 444.140 360.834, 449.616 359.216 C 455.329 357.528, 569.154 357.474, 574.101 359.156 C 580.314 361.270, 585.881 366.057, 588.609 371.633 C 591.005 376.531, 591.200 377.978, 591.344 391.945 L 591.500 406.983 613 406.992 L 634.500 407 634.322 342.750 C 634.124 271.137, 633.721 265.421, 627.533 246.530 C 621.656 228.589, 614.868 217.109, 603.369 205.662 C 586.653 189.022, 564.507 178.533, 537.683 174.550 C 524.850 172.645, 499.917 172.663, 487.538 174.586 M 412.824 254.665 C 407.644 266.375, 408.126 283.192, 413.995 295.489 C 427.579 323.952, 465.076 330.376, 486.504 307.911 C 492.351 301.781, 496.348 294.421, 495.814 290.768 C 495.561 289.031, 488.176 284.899, 457.500 269.330 C 436.600 258.722, 418.462 250.034, 417.194 250.022 C 415.402 250.005, 414.428 251.040, 412.824 254.665 M 566.500 269.301 C 523.914 290.817, 525.909 289.206, 530.425 298.437 C 537.804 313.518, 556.972 323.222, 574.893 320.950 C 602.951 317.393, 620.926 289.193, 613.449 260.460 C 611.498 252.961, 609.577 249.986, 606.727 250.051 C 605.502 250.078, 587.400 258.741, 566.500 269.301 M 151.014 380.752 C 145.374 383.580, 145.031 385.179, 145.015 408.750 L 145 430 156.500 430 L 168 430 168 409.065 C 168 397.551, 167.561 386.976, 167.025 385.566 C 165.865 382.515, 160.506 379.008, 157 379.005 C 155.625 379.004, 152.931 379.790, 151.014 380.752 M 862.315 380.464 C 856.553 382.969, 856 385.469, 856 408.982 L 856 430.063 867.578 429.782 L 879.156 429.500 879.041 408.018 C 878.914 384.170, 878.634 382.999, 872.454 380.416 C 868.288 378.676, 866.405 378.684, 862.315 380.464 M 467 398.500 L 467 407 481.500 407 L 496 407 496 398.500 L 496 390 481.500 390 L 467 390 467 398.500 M 528 398.500 L 528 407 542.500 407 L 557 407 557 398.500 L 557 390 542.500 390 L 528 390 528 398.500 M 332.015 463.250 C 332.047 506.777, 335.945 539.853, 345.563 578.195 C 353.176 608.548, 356.613 615.973, 365.038 620.273 C 376.510 626.129, 375.303 626.085, 516.610 625.779 L 645.500 625.500 652.087 623.260 C 667.384 618.059, 669.724 613.990, 678.986 576.500 C 688.211 539.157, 690.950 517.156, 691.713 474.250 L 692.287 442 512.143 442 L 332 442 332.015 463.250 M 128.999 553.750 L 129 643 157 643 L 185 643 185 554.030 L 185 465.061 156.999 464.780 L 128.999 464.500 128.999 553.750 M 839 553.750 L 839 643 867 643 L 895 643 895 553.750 L 895.001 464.500 867.001 464.500 L 839.001 464.500 839 553.750 M 506.684 481.449 C 501.701 483.226, 499.132 485.598, 496.881 490.500 C 495.203 494.153, 495.042 497.758, 495.022 532.038 C 495 569.002, 495.034 569.644, 497.250 574.030 C 500.950 581.354, 508.550 585.053, 516.750 583.522 C 521.423 582.650, 528.407 575.717, 529.346 571.018 C 529.706 569.220, 529.990 551.269, 529.978 531.125 C 529.958 497.731, 529.794 494.147, 528.119 490.500 C 527.109 488.300, 525.349 485.670, 524.207 484.655 C 521.860 482.567, 515.503 480.088, 512.500 480.088 C 511.400 480.088, 508.783 480.700, 506.684 481.449 M 724.505 505.750 C 721.300 538.819, 717.373 561.201, 709.998 588.427 C 707.774 596.637, 706.302 603.652, 706.727 604.015 C 707.152 604.379, 725.950 607.677, 748.500 611.345 C 803.742 620.329, 803.970 620.364, 804.494 619.839 C 804.747 619.587, 805.005 602.757, 805.068 582.440 L 805.184 545.500 765.842 522.263 C 744.204 509.483, 726.198 499.020, 725.830 499.013 C 725.461 499.006, 724.865 502.038, 724.505 505.750 M 257.989 522.895 L 218.500 545.789 218.500 582.312 C 218.500 602.400, 218.757 619.092, 219.071 619.406 C 219.786 620.119, 316.555 604.778, 317.538 603.796 C 317.701 603.633, 315.381 593.825, 312.382 582 C 306.313 558.066, 302.706 538.501, 301.043 520.500 C 299.486 503.635, 298.978 500, 298.178 500 C 297.793 500, 279.708 510.303, 257.989 522.895 M 414.246 660.250 C 414.499 660.938, 418.410 672.640, 422.938 686.256 L 431.170 711.012 512.705 710.756 L 594.241 710.500 602.048 686.500 C 606.343 673.300, 610.162 661.712, 610.535 660.750 C 611.179 659.091, 606.105 659, 512.500 659 C 433.950 659, 413.880 659.255, 414.246 660.250 M 149 692 L 149 707 157.250 706.999 L 165.500 706.998 165.500 691.999 L 165.500 677 157.250 677 L 149 677 149 692 M 859 692 L 859 707 868.107 707 C 876.001 707, 877.133 706.789, 876.607 705.418 C 876.273 704.548, 876 697.798, 876 690.418 L 876 677 867.500 677 L 859 677 859 692 M 482.870 745.721 C 478.937 746.139, 478.856 746.275, 467.979 770.708 L 464.770 777.915 468.262 784.208 C 470.183 787.668, 480.585 806.173, 491.377 825.329 C 502.170 844.485, 511 860.573, 511 861.079 C 511 861.586, 511.337 861.982, 511.750 861.960 C 512.443 861.922, 557.138 782.503, 558.500 778.889 C 558.849 777.964, 556.170 770.726, 552.209 761.889 C 545.954 747.936, 545.040 746.441, 542.405 745.868 C 539.314 745.196, 488.991 745.072, 482.870 745.721" fill="#ffdd44" stroke="#ffdd44" stroke-width="1"/>
</svg>